HIERARCHY
ROOT root
{
	OFFSET	0	13.1	24.9
	CHANNELS 6  Xposition Yposition Zposition Xrotation Yrotation Zrotation
	JOINT spine_1
	{
		OFFSET	0	9.99999	0
		CHANNELS 3  Xrotation Yrotation Zrotation
		JOINT spine_2
		{
			OFFSET	0	112	-10
			CHANNELS 3  Xrotation Yrotation Zrotation
			JOINT spine_3
			{
				OFFSET	0	206.5	19.3
				CHANNELS 3  Xrotation Yrotation Zrotation
				JOINT spine_4
				{
					OFFSET	0	110.4	14.6
					CHANNELS 3  Xrotation Yrotation Zrotation
					JOINT neck_1
					{
						OFFSET	0	71.8	-50.3
						CHANNELS 3  Xrotation Yrotation Zrotation
						JOINT neck_2
						{
							OFFSET	0	86.2	-25.8
							CHANNELS 3  Xrotation Yrotation Zrotation
							JOINT head_ee
							{
								OFFSET	0	179.8	-8.7
								CHANNELS 3  Xrotation Yrotation Zrotation
								End Site
								{
									OFFSET	1	0	0
								}
							}
						}
					}
					JOINT left_clavicle
					{
						OFFSET	-43.2	22.4	-70.8
						CHANNELS 3  Xrotation Yrotation Zrotation
						JOINT left_shoulder
						{
							OFFSET	-93.9	-5.79999	48.7
							CHANNELS 3  Xrotation Yrotation Zrotation
							JOINT left_elbow
							{
								OFFSET	-291.4	-30.8	15.2
								CHANNELS 3  Xrotation Yrotation Zrotation
								JOINT left_lowarm_twist
								{
									OFFSET	-110.7	-3.89999	13.6
									CHANNELS 3  Xrotation Yrotation Zrotation
									JOINT left_hand
									{
										OFFSET	-110.7	-3.89999	13.6
										CHANNELS 3  Xrotation Yrotation Zrotation
										JOINT left_ee
										{
											OFFSET	-80.8	-5.10001	12.1
											CHANNELS 3  Xrotation Yrotation Zrotation
											End Site
											{
												OFFSET	1	0	0
											}
										}
									}
								}
							}
						}
					}
					JOINT right_clavicle
					{
						OFFSET	43.2	22.4	-70.8
						CHANNELS 3  Xrotation Yrotation Zrotation
						JOINT right_shoulder
						{
							OFFSET	93.9	-5.79999	48.7
							CHANNELS 3  Xrotation Yrotation Zrotation
							JOINT right_elbow
							{
								OFFSET	291.4	-30.8	15.2
								CHANNELS 3  Xrotation Yrotation Zrotation
								JOINT right_lowarm_twist
								{
									OFFSET	110.7	-3.89999	13.6
									CHANNELS 3  Xrotation Yrotation Zrotation
									JOINT right_hand
									{
										OFFSET	110.7	-3.89999	13.6
										CHANNELS 3  Xrotation Yrotation Zrotation
										JOINT right_ee
										{
											OFFSET	80.8	-5.10001	12.1
											CHANNELS 3  Xrotation Yrotation Zrotation
											End Site
											{
												OFFSET	1	0	0
											}
										}
									}
								}
							}
						}
					}
				}
			}
		}
	}
	JOINT left_hip
	{
		OFFSET	-82.8	-127.5	0.300001
		CHANNELS 3  Xrotation Yrotation Zrotation
		JOINT left_knee
		{
			OFFSET	-28.2	-396.7	2.2
			CHANNELS 3  Xrotation Yrotation Zrotation
			JOINT left_ankle
			{
				OFFSET	-11.7	-411.3	35.4
				CHANNELS 3  Xrotation Yrotation Zrotation
				JOINT left_toes
				{
					OFFSET	0	-60	-88.6
					CHANNELS 3  Xrotation Yrotation Zrotation
					JOINT left_foot_ee
					{
						OFFSET	-22.5	-16.5	-42.2
						CHANNELS 3  Xrotation Yrotation Zrotation
						End Site
						{
							OFFSET	1	0	0
						}
					}
				}
			}
		}
	}
	JOINT right_hip
	{
		OFFSET	82.8	-127.5	0.300001
		CHANNELS 3  Xrotation Yrotation Zrotation
		JOINT right_knee
		{
			OFFSET	28.2	-396.7	2.2
			CHANNELS 3  Xrotation Yrotation Zrotation
			JOINT right_ankle
			{
				OFFSET	11.7	-411.3	35.4
				CHANNELS 3  Xrotation Yrotation Zrotation
				JOINT right_toes
				{
					OFFSET	0	-60	-88.6
					CHANNELS 3  Xrotation Yrotation Zrotation
					JOINT right_foot_ee
					{
						OFFSET	22.5	-16.5	-42.2
						CHANNELS 3  Xrotation Yrotation Zrotation
						End Site
						{
							OFFSET	1	0	0
						}
					}
				}
			}
		}
	}
}
MOTION
Frames: 13
Frame Time: 0.02
2858.45515752 719.811 -1602.06293448 53.6159414187 87.6478451773 -57.6857664379 -0.842376 0.198764 3.69151 -0.834797 -0.0363759 3.69667 -0.832275 -0.865976 3.59413 -0.850184 -0.287888 3.68564 -11.4393 10.7122 -1.02207 -11.6519 20.9432 1.99474 -0.0 0.0 -0.0 -4.67435 22.5057 -3.94719 2.96103 -25.5339 80.3842 1.83327 -42.24 0.708185 -22.1243 -1.28013 2.50504 3.16291 19.8591 28.1258 -0.0 0.0 -0.0 12.386 20.994 -24.748 -16.7277 7.50561 -69.1504 0.270606 7.63517 -0.018057 11.992 -0.265762 1.50603 -0.112878 8.75937 4.48619 0.0 0.0 0.0 5.14344 4.85715 3.61864 -16.6294 0.320541 2.52287 31.0 -8.12231 -4.11821 -31.6989 0.0 0.0 -0.0 0.0 -0.0 21.1867 6.97519 0.93664 -60.118 2.21274 -8.53844 36.3379 -26.8539 4.86026 -15.6252 0.0 0.0 0.0 0.0 0.0 
2851.44070548 719.042 -1582.42424739 131.595221299 87.1409654435 -136.063425824 -0.97279 0.0814985 3.74645 -0.964996 -0.156893 3.74405 -0.970294 -1.00303 3.61079 -0.988238 -0.420601 3.72369 -11.2838 10.3922 -1.14725 -11.4764 20.4105 1.7522 -0.0 0.0 -0.0 -4.31882 20.8919 -3.82575 4.63332 -25.449 81.542 1.95155 -44.0264 0.789063 -21.8124 -1.25555 2.47354 3.20084 18.9819 28.1752 -0.0 0.0 -0.0 12.2723 20.3345 -24.536 -17.9522 6.94346 -69.0599 0.20097 5.68546 -0.00997929 12.0798 -0.266538 1.51722 -0.141265 8.4581 4.54967 0.0 0.0 0.0 3.02784 5.441 4.73355 -14.6972 0.321104 2.22643 31.3687 -9.33849 -4.18033 -31.7611 0.0 0.0 -0.0 0.0 -0.0 22.6485 6.88198 1.23613 -59.3431 2.12947 -8.45268 35.0072 -27.116 4.72697 -16.7474 0.0 0.0 0.0 0.0 0.0 
2846.70381463 715.17 -1568.14762767 150.543552342 84.6381032288 -155.281980214 -1.21683 0.200329 3.76753 -1.20894 -0.0396408 3.77264 -1.20576 -0.910196 3.66156 -1.22432 -0.320928 3.75919 -10.799 10.4586 -0.828794 -10.9686 20.3013 1.9878 -0.0 0.0 -0.0 -3.82991 17.2912 -3.90298 6.57693 -27.3658 82.3283 2.07382 -45.7663 0.875376 -20.8777 -1.18292 2.37835 3.25736 18.2311 28.3831 -0.0 0.0 -0.0 11.8152 16.5734 -23.7119 -19.53 7.25797 -67.9811 0.184099 5.21094 -0.00837749 11.7047 -0.263104 1.46944 -0.35015 5.05853 4.5078 0.0 0.0 0.0 1.42935 5.88588 4.95922 -13.0513 0.3137 1.97402 32.3085 -9.00172 -4.27219 -32.4523 0.0 0.0 -0.0 0.0 -0.0 23.2555 8.81693 0.914953 -54.9853 1.68351 -7.95028 29.0488 -27.8054 4.0687 -18.5504 0.0 0.0 0.0 0.0 0.0 
2836.8854568 720.443 -1568.94316986 143.056627346 85.466218261 -147.731959698 -1.28731 -0.151752 3.75168 -1.27957 -0.390005 3.73446 -1.30012 -1.24872 3.5413 -1.31698 -0.674169 3.69381 -10.7915 10.1297 -1.02285 -10.9505 19.807 1.7077 -0.0 0.0 -0.0 -3.61037 17.3704 -3.54347 8.57667 -25.6104 83.3033 2.14187 -46.69 0.924517 -21.2964 -1.21527 2.42114 3.24983 17.7168 28.1988 -0.0 0.0 -0.0 12.1088 18.3481 -24.2911 -20.4589 5.78342 -68.2051 0.174137 4.93038 -0.00749696 12.177 -0.267377 1.52961 -0.196171 7.78714 4.63464 0.0 0.0 0.0 -0.201768 6.43904 5.24177 -11.3276 0.298177 1.71001 31.9351 -10.7011 -4.26868 -31.9152 0.0 0.0 -0.0 0.0 -0.0 24.9751 6.44657 1.8015 -52.0275 1.4033 -7.59087 31.7591 -27.5016 4.37741 -18.5637 0.0 0.0 0.0 0.0 0.0 
2819.03235699 723.301 -1572.68888223 103.73537147 86.9643154457 -107.93568203 -1.54901 0.267776 3.49193 -1.54223 0.0451721 3.50187 -1.53374 -0.784391 3.4133 -1.54991 -0.235825 3.49423 -10.6447 9.90442 -1.84197 -10.7905 19.9153 0.826802 -0.0 0.0 -0.0 -3.32946 13.7786 -3.83319 10.5302 -26.4786 84.4193 2.22812 -47.8168 0.987859 -20.8619 -1.18171 2.37672 3.303 16.7678 28.3266 -0.0 0.0 -0.0 11.8184 16.5562 -23.72 -22.9366 5.47443 -68.1884 0.191473 5.41843 -0.00906052 11.7748 -0.263769 1.47836 -0.287484 5.61547 4.32292 0.0 0.0 0.0 -3.78011 7.19702 5.34648 -8.57361 0.256917 1.28948 31.81 -10.8463 -4.25872 -32.2206 0.0 0.0 -0.0 0.0 -0.0 25.5704 9.08431 0.687978 -45.8983 0.883995 -6.80342 30.2916 -27.5744 4.20944 -20.4229 0.0 0.0 0.0 0.0 0.0 
2805.6977981 713.653 -1574.94938268 89.5447289365 86.9935528787 -93.2562670503 -1.59135 0.33596 3.36926 -1.58504 0.12101 3.38379 -1.5723 -0.684827 3.31605 -1.58761 -0.152838 3.3825 -9.04426 8.86801 -2.84426 -9.08792 18.588 -0.699962 -0.0 0.0 -0.0 -3.12536 10.936 -4.04683 11.0904 -25.8447 85.2509 2.31027 -48.8464 1.04923 -20.9845 -1.19114 2.38928 3.23848 14.9437 27.3669 -0.0 0.0 -0.0 11.6182 14.4774 -23.3453 -25.2571 5.08259 -67.4455 0.206293 5.83504 -0.0105137 12.1132 -0.266829 1.52147 -0.503408 0.844861 3.72767 0.0 0.0 0.0 -6.70948 7.10973 4.96954 -3.32177 0.122444 0.495011 30.3055 -12.3575 -4.13199 -32.8047 0.0 0.0 -0.0 0.0 -0.0 26.1544 11.1987 -0.618984 -34.8811 0.173621 -5.26855 23.8355 -26.1383 3.38539 -22.4822 0.0 0.0 0.0 0.0 0.0 
2804.69960948 713.653 -1578.96914692 77.9324354412 86.9256469177 -81.6277189531 -1.59135 0.33596 3.36926 -1.58504 0.12101 3.38379 -1.5723 -0.684827 3.31605 -1.58761 -0.152838 3.3825 -9.04426 8.86801 -2.84426 -9.08792 18.588 -0.699962 -0.0 0.0 -0.0 -3.12536 10.936 -4.04683 11.0904 -25.8447 85.2509 2.31027 -48.8464 1.04923 -20.9845 -1.19114 2.38928 3.23848 14.9437 27.3669 -0.0 0.0 -0.0 11.6182 14.4774 -23.3453 -25.2571 5.08259 -67.4455 0.206293 5.83504 -0.0105137 12.1132 -0.266829 1.52147 -0.503408 0.844861 3.72767 0.0 0.0 0.0 -6.70948 7.10973 4.96954 -3.32177 0.122444 0.495011 30.3055 -12.3575 -4.13199 -32.8047 0.0 0.0 -0.0 0.0 -0.0 26.1544 11.1987 -0.618984 -34.8811 0.173621 -5.26855 23.8355 -26.1383 3.38539 -22.4822 0.0 0.0 0.0 0.0 0.0 
2790.27109198 711.072 -1584.83755688 56.1311567515 86.6388671124 -59.4758964143 -1.45957 0.37923 3.30936 -1.4535 0.167997 3.32676 -1.43843 -0.617902 3.27324 -1.45337 -0.0934994 3.32968 -7.91917 8.80281 -3.6125 -7.90093 18.9743 -1.66892 -0.0 0.0 -0.0 -3.42844 8.22755 -5.10439 11.8054 -27.9432 86.8292 2.36944 -49.5628 1.09403 -20.8486 -1.18069 2.37536 3.23263 13.6188 26.9411 -0.0 0.0 -0.0 11.565 12.7838 -23.2691 -26.578 4.62285 -66.8314 0.204883 5.79541 -0.0103706 12.1704 -0.267321 1.52876 -0.656803 -2.49276 3.3081 0.0 0.0 0.0 -8.72128 7.62514 5.16161 0.401935 -0.0167596 -0.0594027 29.0559 -12.3815 -3.99416 -33.3956 0.0 0.0 -0.0 0.0 -0.0 25.7932 12.9474 -0.93314 -28.0802 -0.112796 -4.26485 17.9553 -25.3002 2.60106 -22.6727 0.0 0.0 0.0 0.0 0.0 
2771.35598494 710.485 -1584.59141861 39.2445871458 86.1491434989 -42.637708171 -1.49879 0.444034 3.34905 -1.49258 0.23015 3.37048 -1.4734 -0.569707 3.32999 -1.48887 -0.0369603 3.37812 -6.8808 8.57081 -4.69621 -6.78568 19.299 -2.98887 -0.0 0.0 -0.0 -3.72708 6.74569 -5.938 12.6184 -29.3561 88.5552 2.40202 -49.9484 1.11889 -20.7016 -1.16942 2.36029 3.28142 11.6208 26.6838 -0.0 0.0 -0.0 11.4182 10.5382 -22.967 -27.6212 4.55566 -66.4834 0.219752 6.21284 -0.0119261 12.0324 -0.266122 1.51118 -0.939269 -7.48153 2.98414 0.0 0.0 0.0 -10.8499 7.61029 5.4529 3.52624 -0.16119 -0.51696 27.1449 -12.9585 -3.78924 -33.7914 0.0 0.0 -0.0 0.0 -0.0 26.3669 14.8589 -1.00658 -20.1418 -0.293927 -3.06104 12.5144 -23.3104 1.83002 -23.531 0.0 0.0 0.0 0.0 0.0 
2752.56375435 708.589 -1588.62307476 21.0602893923 84.9209936017 -24.2967423873 -1.51334 0.444531 3.39265 -1.50696 0.227876 3.41403 -1.48759 -0.583026 3.37164 -1.50345 -0.0435465 3.42134 -6.51406 8.43107 -5.31546 -6.37996 19.4856 -3.71031 -0.0 0.0 -0.0 -4.08084 6.10274 -6.71914 13.0501 -30.2932 89.385 2.45349 -50.5452 1.15846 -20.6563 -1.16595 2.35563 3.30997 10.2423 26.4519 -0.0 0.0 -0.0 11.2604 8.85002 -22.6147 -28.4136 4.63173 -66.0091 0.218536 6.17871 -0.0117948 12.0344 -0.266139 1.51144 -1.15222 -11.2433 2.68354 0.0 0.0 0.0 -12.3369 7.41296 5.99278 5.77661 -0.280604 -0.841417 26.0824 -13.5928 -3.67895 -34.0014 0.0 0.0 -0.0 0.0 -0.0 26.9827 17.0099 -1.90127 -14.529 -0.320681 -2.20064 8.72927 -21.3063 1.28064 -24.049 0.0 0.0 0.0 0.0 0.0 
2751.66283868 708.589 -1593.51703243 18.6824419569 84.3002418155 -21.9083748192 -1.51334 0.444531 3.39265 -1.50696 0.227876 3.41403 -1.48759 -0.583026 3.37164 -1.50345 -0.0435465 3.42134 -6.51406 8.43107 -5.31546 -6.37996 19.4856 -3.71031 -0.0 0.0 -0.0 -4.08084 6.10274 -6.71914 13.0501 -30.2932 89.385 2.45349 -50.5452 1.15846 -20.6563 -1.16595 2.35563 3.30997 10.2423 26.4519 -0.0 0.0 -0.0 11.2604 8.85002 -22.6147 -28.4136 4.63173 -66.0091 0.218536 6.17871 -0.0117948 12.0344 -0.266139 1.51144 -1.15222 -11.2433 2.68354 0.0 0.0 0.0 -12.3369 7.41296 5.99278 5.77661 -0.280604 -0.841417 26.0824 -13.5928 -3.67895 -34.0014 0.0 0.0 -0.0 0.0 -0.0 26.9827 17.0099 -1.90127 -14.529 -0.320681 -2.20064 8.72927 -21.3063 1.28064 -24.049 0.0 0.0 0.0 0.0 0.0 
2715.75395312 698.514 -1593.21752868 16.7214218015 82.9820802664 -20.464235193 -1.39117 0.443506 3.62541 -1.38388 0.212069 3.64625 -1.36408 -0.645492 3.59499 -1.38211 -0.0700245 3.65174 -4.95021 8.31948 -5.95185 -4.71463 19.7482 -4.67402 -0.0 0.0 -0.0 -4.90759 9.58774 -7.45321 13.1511 -35.7683 90.7132 2.64133 -52.6013 1.30564 -20.4528 -1.15043 2.33469 3.34936 6.34382 25.415 -0.0 0.0 -0.0 10.8074 5.35949 -21.5661 -29.219 4.34109 -65.4496 0.26808 7.56474 -0.017723 12.3437 -0.268767 1.55086 -1.59646 -18.2461 2.24532 0.0 0.0 0.0 -13.7647 7.60582 6.30401 2.36485 -0.104583 -0.34778 31.9583 -15.6453 -4.39979 -33.6956 0.0 0.0 -0.0 0.0 -0.0 23.9575 18.2507 -2.93023 4.41577 0.206864 0.645759 -1.37027 -19.5385 -0.204977 -24.6979 0.0 0.0 0.0 0.0 0.0 
2694.6082257 694.232 -1596.42782248 12.2168904559 81.6565113629 -16.3872165151 -1.26212 0.469822 3.66288 -1.25469 0.235953 3.68531 -1.23328 -0.623046 3.63998 -1.25176 -0.0407683 3.69262 -4.55893 7.76224 -5.61426 -4.3355 18.4733 -4.48784 -0.0 0.0 -0.0 -3.48729 12.0594 -4.44401 10.4085 -39.2553 87.1863 2.84102 -54.5939 1.46639 -18.7417 -1.02287 2.1565 3.57452 3.59913 26.0671 -0.0 0.0 -0.0 10.7501 4.57749 -21.4207 -29.2674 4.38017 -65.1674 0.245587 6.93649 -0.0148842 13.4535 -0.276444 1.6924 -2.02581 -23.2172 2.40541 0.0 0.0 0.0 -14.3245 7.33948 6.64032 -0.312106 0.0127255 0.0462053 36.236 -17.6067 -4.90488 -34.0427 0.0 0.0 -0.0 0.0 -0.0 23.0137 18.9007 -2.60968 7.72596 0.394307 1.11858 -1.83733 -15.9678 -0.272327 -23.9334 0.0 0.0 0.0 0.0 0.0 
